<svg width="672" height="98" viewBox="0 0 672 98" fill="none" xmlns="http://www.w3.org/2000/svg">
<path d="M41.625 97.125C35.375 97.125 31.5417 94.3333 30.125 88.75C27.5417 89.75 24.5 90.25 21 90.25C14.25 90.25 9.08333 88.3333 5.5 84.5C1.91667 80.6667 0.125 75.25 0.125 68.25V22.25C0.125 15.25 1.91667 9.83333 5.5 6C9.08333 2.16666 14.25 0.249995 21 0.249995C27.75 0.249995 32.9167 2.16666 36.5 6C40.0833 9.83333 41.875 15.25 41.875 22.25V68.25C41.875 74.0833 40.5833 78.875 38 82.625C38.5 83.4583 39.125 84 39.875 84.25C40.625 84.5 41.7083 84.625 43.125 84.625H45.25V97.125H41.625ZM21 77.75C25.75 77.75 28.125 74.875 28.125 69.125V21.375C28.125 15.625 25.75 12.75 21 12.75C16.25 12.75 13.875 15.625 13.875 21.375V69.125C13.875 74.875 16.25 77.75 21 77.75ZM71.1738 90.25C64.5072 90.25 59.4238 88.375 55.9238 84.625C52.4238 80.7917 50.6738 75.3333 50.6738 68.25V1.49999H64.4238V69.25C64.4238 72.25 65.0072 74.4167 66.1738 75.75C67.4238 77.0833 69.1738 77.75 71.4238 77.75C73.6738 77.75 75.3822 77.0833 76.5488 75.75C77.7988 74.4167 78.4238 72.25 78.4238 69.25V1.49999H91.6738V68.25C91.6738 75.3333 89.9238 80.7917 86.4238 84.625C82.9238 88.375 77.8405 90.25 71.1738 90.25ZM101.467 1.49999H138.967V14H115.217V37.125H134.092V49.625H115.217V76.5H138.967V89H101.467V1.49999ZM164.996 90.25C158.329 90.25 153.288 88.375 149.871 84.625C146.454 80.7917 144.746 75.3333 144.746 68.25V63.25H157.746V69.25C157.746 74.9167 160.121 77.75 164.871 77.75C167.204 77.75 168.954 77.0833 170.121 75.75C171.371 74.3333 171.996 72.0833 171.996 69C171.996 65.3333 171.163 62.125 169.496 59.375C167.829 56.5417 164.746 53.1667 160.246 49.25C154.579 44.25 150.621 39.75 148.371 35.75C146.121 31.6667 144.996 27.0833 144.996 22C144.996 15.0833 146.746 9.75 150.246 6C153.746 2.16666 158.829 0.249995 165.496 0.249995C172.079 0.249995 177.038 2.16666 180.371 6C183.788 9.75 185.496 15.1667 185.496 22.25V25.875H172.496V21.375C172.496 18.375 171.913 16.2083 170.746 14.875C169.579 13.4583 167.871 12.75 165.621 12.75C161.038 12.75 158.746 15.5417 158.746 21.125C158.746 24.2917 159.579 27.25 161.246 30C162.996 32.75 166.121 36.0833 170.621 40C176.371 45 180.329 49.5417 182.496 53.625C184.663 57.7083 185.746 62.5 185.746 68C185.746 75.1667 183.954 80.6667 180.371 84.5C176.871 88.3333 171.746 90.25 164.996 90.25ZM204.38 14H190.005V1.49999H232.505V14H218.13V89H204.38V14ZM239.162 1.49999H252.912V89H239.162V1.49999ZM283.085 90.25C276.335 90.25 271.168 88.3333 267.585 84.5C264.002 80.6667 262.21 75.25 262.21 68.25V22.25C262.21 15.25 264.002 9.83333 267.585 6C271.168 2.16666 276.335 0.249995 283.085 0.249995C289.835 0.249995 295.002 2.16666 298.585 6C302.168 9.83333 303.96 15.25 303.96 22.25V68.25C303.96 75.25 302.168 80.6667 298.585 84.5C295.002 88.3333 289.835 90.25 283.085 90.25ZM283.085 77.75C287.835 77.75 290.21 74.875 290.21 69.125V21.375C290.21 15.625 287.835 12.75 283.085 12.75C278.335 12.75 275.96 15.625 275.96 21.375V69.125C275.96 74.875 278.335 77.75 283.085 77.75ZM313.259 1.49999H330.509L343.884 53.875H344.134V1.49999H356.384V89H342.259L325.759 25.125H325.509V89H313.259V1.49999ZM386.623 1.49999H407.373C414.456 1.49999 419.623 3.16666 422.873 6.5C426.123 9.74999 427.748 14.7917 427.748 21.625V25.125C427.748 29.625 426.998 33.2917 425.498 36.125C424.081 38.9583 421.873 41 418.873 42.25V42.5C425.706 44.8333 429.123 50.9167 429.123 60.75V68.25C429.123 75 427.331 80.1667 423.748 83.75C420.248 87.25 415.081 89 408.248 89H386.623V1.49999ZM405.748 37.125C408.498 37.125 410.54 36.4167 411.873 35C413.29 33.5833 413.998 31.2083 413.998 27.875V23C413.998 19.8333 413.415 17.5417 412.248 16.125C411.165 14.7083 409.415 14 406.998 14H400.373V37.125H405.748ZM408.248 76.5C410.665 76.5 412.456 75.875 413.623 74.625C414.79 73.2917 415.373 71.0417 415.373 67.875V60.25C415.373 56.25 414.665 53.5 413.248 52C411.915 50.4167 409.665 49.625 406.498 49.625H400.373V76.5H408.248ZM457.16 90.25C450.493 90.25 445.41 88.375 441.91 84.625C438.41 80.7917 436.66 75.3333 436.66 68.25V1.49999H450.41V69.25C450.41 72.25 450.993 74.4167 452.16 75.75C453.41 77.0833 455.16 77.75 457.41 77.75C459.66 77.75 461.368 77.0833 462.535 75.75C463.785 74.4167 464.41 72.25 464.41 69.25V1.49999H477.66V68.25C477.66 75.3333 475.91 80.7917 472.41 84.625C468.91 88.375 463.827 90.25 457.16 90.25ZM506.828 90.25C500.245 90.25 495.203 88.375 491.703 84.625C488.286 80.875 486.578 75.5833 486.578 68.75V21.75C486.578 14.9167 488.286 9.625 491.703 5.875C495.203 2.125 500.245 0.249995 506.828 0.249995C513.411 0.249995 518.411 2.125 521.828 5.875C525.328 9.625 527.078 14.9167 527.078 21.75V31H514.078V20.875C514.078 15.4583 511.786 12.75 507.203 12.75C502.62 12.75 500.328 15.4583 500.328 20.875V69.75C500.328 75.0833 502.62 77.75 507.203 77.75C511.786 77.75 514.078 75.0833 514.078 69.75V56.375H527.078V68.75C527.078 75.5833 525.328 80.875 521.828 84.625C518.411 88.375 513.411 90.25 506.828 90.25ZM535.305 1.49999H549.055V38.375L566.555 1.49999H580.305L563.93 33.625L580.555 89H566.18L554.555 50L549.055 61.125V89H535.305V1.49999ZM587.063 1.49999H624.563V14H600.813V37.125H619.688V49.625H600.813V76.5H624.563V89H587.063V1.49999ZM643.223 14H628.848V1.49999H671.348V14H656.973V89H643.223V14Z" fill="black"/>
</svg>
